<svg width="32" height="32" viewBox="0 0 32 32" fill="none" xmlns="http://www.w3.org/2000/svg">
<path d="M16 26.8063L14.636 25.5743C12.4569 23.5957 10.6548 21.8955 9.22966 20.4737C7.80477 19.0519 6.67555 17.7891 5.84199 16.6853C5.00822 15.5816 4.42655 14.5746 4.09699 13.6643C3.76744 12.7541 3.60266 11.8306 3.60266 10.8937C3.60266 9.05501 4.22266 7.51568 5.46266 6.27568C6.70288 5.03546 8.24222 4.41534 10.0807 4.41534C11.2304 4.41534 12.3169 4.68757 13.34 5.23201C14.3629 5.77646 15.2495 6.56623 16 7.60134C16.7751 6.56623 17.6672 5.77646 18.6763 5.23201C19.6852 4.68757 20.7662 4.41534 21.9193 4.41534C23.7578 4.41534 25.2971 5.03523 26.5373 6.27501C27.7773 7.51457 28.3973 9.05323 28.3973 10.891C28.3973 11.8295 28.2325 12.7538 27.903 13.664C27.5734 14.5745 26.992 15.5813 26.1587 16.6847C25.3253 17.788 24.1973 19.051 22.7747 20.4737C21.3522 21.8966 19.5487 23.5968 17.364 25.5743L16 26.8063Z" fill="#E475AD"/>
</svg>
