<svg width="32" height="32" viewBox="0 0 32 32" fill="none" xmlns="http://www.w3.org/2000/svg">
<path d="M16 26.8063L14.636 25.5743C12.4569 23.5957 10.6548 21.8955 9.22967 20.4737C7.80478 19.0519 6.67556 17.7891 5.842 16.6853C5.00822 15.5816 4.42656 14.5746 4.097 13.6643C3.76745 12.7541 3.60267 11.8306 3.60267 10.8937C3.60267 9.05501 4.22267 7.51568 5.46267 6.27568C6.70289 5.03546 8.24222 4.41534 10.0807 4.41534C11.2304 4.41534 12.3169 4.68757 13.34 5.23201C14.3629 5.77646 15.2496 6.56623 16 7.60134C16.7751 6.56623 17.6672 5.77646 18.6763 5.23201C19.6852 4.68757 20.7662 4.41534 21.9193 4.41534C23.7578 4.41534 25.2971 5.03523 26.5373 6.27501C27.7773 7.51457 28.3973 9.05323 28.3973 10.891C28.3973 11.8295 28.2326 12.7538 27.903 13.664C27.5734 14.5745 26.992 15.5813 26.1587 16.6847C25.3253 17.788 24.1973 19.051 22.7747 20.4737C21.3522 21.8966 19.5487 23.5968 17.364 25.5743L16 26.8063Z" fill="#FF66BB"/>
</svg>
